<svg width="50" height="50" viewBox="0 0 219 359" fill="none" xmlns="http://www.w3.org/2000/svg">
<g clip-path="url(#clip0_373_1449)">
<path d="M198.033 172.584H175.903V130.519H198.033C200.786 130.519 203.513 131.063 206.057 132.119C208.6 133.176 210.912 134.724 212.859 136.676C214.806 138.628 216.35 140.945 217.404 143.495C218.458 146.046 219 148.779 219 151.539C219.003 154.302 218.463 157.038 217.411 159.591C216.359 162.144 214.815 164.464 212.867 166.418C210.92 168.373 208.608 169.923 206.062 170.981C203.517 172.039 200.788 172.584 198.033 172.584Z" fill="#FF6259"/>
<path d="M20.9673 172.584H43.0975V130.519H20.9673C15.4127 130.535 10.0913 132.76 6.17145 136.706C2.25158 140.651 0.0535835 145.995 0.059958 151.563C0.0599353 157.128 2.26075 162.465 6.17993 166.406C10.0991 170.346 15.4169 172.568 20.9673 172.584V172.584Z" fill="#FF6259"/>
<path d="M162.08 42.0642H56.9199C43.8833 42.0642 33.3151 52.659 33.3151 65.7283V245.27C33.3151 258.34 43.8833 268.935 56.9199 268.935H162.08C175.117 268.935 185.685 258.34 185.685 245.27V65.7283C185.685 52.659 175.117 42.0642 162.08 42.0642Z" fill="#FF805C"/>
<path d="M164.13 245.186L179.715 232.855C183.652 224.51 185.698 215.395 185.709 206.163V104.656H147.107C101.252 104.656 106.491 145.374 106.491 145.374V220.236L164.13 245.186Z" fill="#F57148"/>
<path d="M162.08 157.681H56.9199C43.8833 157.681 33.3151 168.275 33.3151 181.345V291.096C33.3151 304.166 43.8833 314.76 56.9199 314.76H162.08C175.117 314.76 185.685 304.166 185.685 291.096V181.345C185.685 168.275 175.117 157.681 162.08 157.681Z" fill="#95392D"/>
<path d="M70.3466 72.1581C65.7403 71.7721 61.4176 69.7694 58.1392 66.5026C54.8609 63.2358 52.8371 58.9143 52.4243 54.2989C51.4772 43.9511 53.5392 30.1901 66.3066 17.8472C90.7625 -6.67021 113.48 1.2018 113.48 1.2018L101.252 16.0925C101.252 16.0925 116.981 0.336511 148.426 16.9699L140.561 27.486C140.561 27.486 155.415 23.9766 166.78 44.1313L153.676 49.3834C153.676 49.3834 158.915 50.2607 159.79 66.8941L142.312 59.01C142.312 59.01 112.293 75.4992 70.3466 72.1581Z" fill="#AB4A3C"/>
<path d="M199.939 179.013C198.626 179.013 197.366 178.49 196.438 177.559C195.509 176.629 194.988 175.366 194.988 174.05V164.699C194.988 163.383 195.509 162.12 196.438 161.19C197.366 160.259 198.626 159.736 199.939 159.736C201.252 159.736 202.511 160.259 203.44 161.19C204.368 162.12 204.89 163.383 204.89 164.699V174.05C204.89 175.366 204.368 176.629 203.44 177.559C202.511 178.49 201.252 179.013 199.939 179.013V179.013Z" fill="white"/>
<path d="M203.272 235.644C186.692 132.538 116.561 155.734 109.5 158.354C102.451 155.734 32.3201 132.538 15.7285 235.644C15.7285 235.644 100.665 233.408 109.5 164.387C118.347 233.408 203.272 235.644 203.272 235.644Z" fill="#AB4A3C"/>
<path d="M120.721 138.139H95.0902V164.411H120.721V138.139Z" fill="#FF4E4A"/>
<path d="M59.0058 127.623C59.0058 127.719 59.0058 127.815 59.0058 127.911C59.0058 131.395 60.3863 134.736 62.8436 137.2C65.3009 139.663 68.6337 141.047 72.1089 141.047C75.584 141.047 78.9168 139.663 81.3741 137.2C83.8315 134.736 85.212 131.395 85.212 127.911C85.212 127.815 85.212 127.719 85.212 127.623H59.0058Z" fill="#E65C3C"/>
<path d="M79.3617 254.969C76.0519 257.278 73.788 260.806 73.0648 264.783C72.3415 268.76 73.2175 272.862 75.5015 276.194L100.161 311.504L91.1701 324.339C87.3203 322.108 82.7987 321.339 78.4302 322.172C74.0618 323.005 70.1378 325.385 67.3743 328.878C64.6107 332.37 63.1918 336.743 63.3765 341.197C63.5612 345.651 65.3371 349.89 68.3803 353.14C71.4234 356.391 75.5309 358.436 79.9533 358.903C84.3756 359.37 88.818 358.227 92.4698 355.683C96.1216 353.14 98.7393 349.364 99.8454 345.047C100.952 340.729 100.472 336.156 98.4949 332.163L109.476 316.431L120.457 332.151C118.471 336.143 117.984 340.718 119.083 345.041C120.182 349.364 122.796 353.147 126.446 355.699C130.096 358.25 134.54 359.401 138.966 358.941C143.392 358.482 147.506 356.441 150.556 353.193C153.607 349.945 155.391 345.706 155.582 341.249C155.774 336.792 154.361 332.414 151.6 328.915C148.84 325.416 144.916 323.028 140.546 322.188C136.176 321.348 131.65 322.112 127.794 324.339L118.815 311.504L143.475 276.194C145.757 272.863 146.633 268.762 145.912 264.787C145.191 260.811 142.932 257.282 139.626 254.969L109.476 298.127L79.3617 254.969ZM91.5777 340.384C91.5777 342.285 91.0152 344.144 89.9614 345.725C88.9076 347.306 87.4097 348.539 85.6573 349.266C83.9048 349.994 81.9765 350.185 80.1161 349.814C78.2557 349.443 76.5469 348.527 75.2056 347.182C73.8643 345.838 72.9509 344.124 72.5809 342.259C72.2108 340.394 72.4008 338.461 73.1267 336.704C73.8525 334.947 75.0818 333.446 76.6589 332.389C78.2361 331.333 80.0903 330.769 81.9871 330.769C84.5307 330.769 86.9701 331.782 88.7687 333.585C90.5673 335.388 91.5777 337.834 91.5777 340.384ZM146.651 340.384C146.651 342.285 146.089 344.144 145.035 345.725C143.981 347.306 142.483 348.539 140.731 349.266C138.979 349.994 137.05 350.185 135.19 349.814C133.329 349.443 131.621 348.527 130.279 347.182C128.938 345.838 128.025 344.124 127.655 342.259C127.285 340.394 127.474 338.461 128.2 336.704C128.926 334.947 130.155 333.446 131.733 332.389C133.31 331.333 135.164 330.769 137.061 330.769C139.604 330.769 142.044 331.782 143.842 333.585C145.641 335.388 146.651 337.834 146.651 340.384Z" fill="#FAFAFA"/>
</g>
<defs>
<clipPath id="clip0_373_1449">
<rect width="219" height="359" fill="white"/>
</clipPath>
</defs>
</svg>
